<?xml version="1.0" encoding="UTF-8"?> <svg xmlns="http://www.w3.org/2000/svg" width="273" height="100" viewBox="0 0 273 100" fill="none"><g clip-path="url(#clip0_398_3)"><path d="M80.9678 85.855H88.9181V87.2961H82.5683V91.4136H88.5891V92.8365H82.5683V97.2476H88.9181V98.6888H80.9678V85.855Z" fill="black"></path><path d="M90.6426 94.0637V94.0546C90.6426 91.1381 92.226 89.2609 94.5471 89.2609C95.854 89.2609 96.9309 89.9189 97.5091 90.9867H97.5444V85.855H99.0915V98.6877H97.5444V97.1224H97.5091C96.9309 98.1982 95.8995 98.8652 94.5745 98.8652C92.2078 98.8664 90.6426 96.9801 90.6426 94.0637ZM97.5524 94.0637V94.0546C97.5524 91.9919 96.4323 90.6304 94.875 90.6304C93.238 90.6304 92.2249 91.9463 92.2249 94.0546V94.0637C92.2249 96.189 93.2392 97.497 94.875 97.497C96.4402 97.4958 97.5524 96.1355 97.5524 94.0637Z" fill="black"></path><path d="M101.446 95.442V89.4395H102.993V95.1665C102.993 96.6691 103.695 97.4967 105.118 97.4967C106.576 97.4967 107.528 96.4563 107.528 94.8819V89.4395H109.075V98.6886H107.529V97.3727H107.494C106.995 98.2355 106.053 98.8662 104.648 98.8662C102.621 98.8662 101.446 97.5491 101.446 95.442Z" fill="black"></path><path d="M110.943 94.0544V94.0452C110.943 91.1288 112.641 89.2607 115.212 89.2607C117.515 89.2607 118.876 90.7907 119.072 92.373L119.081 92.4436H117.569L117.551 92.373C117.32 91.4487 116.573 90.6302 115.212 90.6302C113.602 90.6302 112.526 91.9643 112.526 94.0635V94.0726C112.526 96.2252 113.629 97.4967 115.23 97.4967C116.492 97.4967 117.302 96.7853 117.56 95.7539L117.578 95.6833H119.099L119.09 95.746C118.841 97.507 117.32 98.8673 115.23 98.8673C112.606 98.8662 110.943 96.9981 110.943 94.0544Z" fill="black"></path><path d="M120.458 96.0728V96.0546C120.458 94.4803 121.685 93.4933 123.81 93.3692L126.46 93.2178V92.4437C126.46 91.3145 125.722 90.6292 124.433 90.6292C123.241 90.6292 122.494 91.1984 122.316 92.026L122.298 92.1057H120.805L120.814 92.0077C120.947 90.4869 122.272 89.2598 124.451 89.2598C126.639 89.2598 128.008 90.4425 128.008 92.2923V98.6865H126.461V97.1839H126.426C125.883 98.1981 124.772 98.8652 123.536 98.8652C121.694 98.8663 120.458 97.7542 120.458 96.0728ZM123.881 97.5231C125.339 97.5231 126.46 96.5179 126.46 95.1758V94.4199L123.988 94.5713C122.751 94.6419 122.04 95.194 122.04 96.0569V96.0751C122.04 96.963 122.77 97.5231 123.881 97.5231Z" fill="black"></path><path d="M130.754 96.3314V90.7193H129.401V89.4386H130.754V86.9399H132.354V89.4386H134.115V90.7193H132.354V96.3223C132.354 97.3092 132.79 97.5847 133.617 97.5847C133.803 97.5847 133.981 97.5585 134.115 97.5494V98.8039C133.919 98.8301 133.591 98.8665 133.288 98.8665C131.59 98.8665 130.754 98.1015 130.754 96.3314Z" fill="black"></path><path d="M135.981 86.9045C135.981 86.3615 136.417 85.9346 136.951 85.9346C137.494 85.9346 137.921 86.3615 137.921 86.9045C137.921 87.4383 137.494 87.8743 136.951 87.8743C136.417 87.8732 135.981 87.4372 135.981 86.9045ZM136.177 89.4384H137.724V98.6876H136.177V89.4384Z" fill="black"></path><path d="M139.506 94.0635V94.0452C139.506 91.1015 141.232 89.2607 143.784 89.2607C146.336 89.2607 148.071 91.0924 148.071 94.0452V94.0635C148.071 97.0164 146.346 98.8662 143.793 98.8662C141.223 98.8662 139.506 97.0072 139.506 94.0635ZM146.488 94.0635V94.0452C146.488 91.8755 145.42 90.6302 143.784 90.6302C142.175 90.6302 141.09 91.8846 141.09 94.0452V94.0635C141.09 96.2423 142.166 97.4967 143.802 97.4967C145.429 97.4956 146.488 96.2332 146.488 94.0635Z" fill="black"></path><path d="M149.754 89.4383H151.301V90.7543H151.336C151.835 89.8914 152.777 89.2607 154.182 89.2607C156.21 89.2607 157.383 90.5767 157.383 92.6849V98.6875H155.836V92.9604C155.836 91.4578 155.134 90.6302 153.711 90.6302C152.253 90.6302 151.301 91.6706 151.301 93.245V98.6875H149.754V89.4383Z" fill="black"></path><path d="M58.5469 52.74C58.4581 52.9939 57.0352 57.8979 53.5666 62.9647C50.5716 67.3474 47.4616 71.7141 42.5587 71.8029C37.7457 71.894 36.1953 68.9457 30.6947 68.9457C25.1874 68.9457 23.4662 71.7141 18.915 71.894C14.1863 72.0716 10.58 67.1562 7.56221 62.7917C1.38322 53.8624 -3.32957 37.5635 3.00879 26.5692C6.14838 21.1017 11.7753 17.6422 17.8803 17.5534C22.5293 17.4669 26.9074 20.6748 29.7488 20.6748C32.5855 20.6748 37.9108 16.8124 43.5092 17.3804C45.8531 17.4806 52.4339 18.323 56.6606 24.5111C56.3248 24.7251 48.8083 29.0975 48.8902 38.1918C48.9893 49.0757 58.4365 52.6956 58.5469 52.74ZM39.8426 11.4792C42.3583 8.43522 44.0465 4.2085 43.5843 0C39.9666 0.133188 35.5851 2.40762 32.9942 5.44703C30.6663 8.13697 28.6252 12.4411 29.1784 16.5642C33.2094 16.8773 37.3359 14.514 39.8426 11.4792Z" fill="black"></path><path d="M90.8682 32.1525H83.0716L81.2002 37.6804H77.8989L85.2823 17.2275H88.7133L96.0967 37.6804H92.7385L90.8682 32.1525ZM83.881 29.6015H90.0611L87.0137 20.6289H86.9284L83.881 29.6015Z" fill="black"></path><path d="M110.605 37.6807H107.67V35.1581H107.6C106.777 36.9442 105.261 37.9505 102.978 37.9505C99.7316 37.9505 97.7485 35.8388 97.7485 32.4226V22.7705H100.81V31.8284C100.81 34.096 101.885 35.314 103.998 35.314C106.209 35.314 107.542 33.783 107.542 31.4584V22.7705H110.603V37.6807H110.605Z" fill="black"></path><path d="M117.882 19.2402V22.7691H120.717V25.1927H117.882V33.4139C117.882 34.7037 118.449 35.2854 119.697 35.2854C120.009 35.2854 120.505 35.2569 120.704 35.2148V37.6383C120.364 37.7237 119.684 37.7806 119.004 37.7806C115.985 37.7806 114.808 36.632 114.808 33.7554V25.1938H112.639V22.7703H114.808V19.2414L117.882 19.2402Z" fill="black"></path><path d="M123.63 17.2275H126.664V25.2643H126.734C127.557 23.5204 129.186 22.5141 131.454 22.5141C134.729 22.5141 136.685 24.6963 136.685 28.0704V37.6804H133.609V28.6657C133.609 26.4687 132.503 25.1505 130.35 25.1505C128.082 25.1505 126.692 26.71 126.692 29.063V37.6804H123.631V17.2275H123.63Z" fill="black"></path><path d="M139.256 30.2254C139.256 25.4352 142.077 22.5005 146.329 22.5005C150.582 22.5005 153.403 25.4352 153.403 30.2254C153.403 35.0304 150.596 37.9639 146.329 37.9639C142.064 37.9639 139.256 35.0292 139.256 30.2254ZM150.284 30.2254C150.284 26.923 148.724 25.0242 146.329 25.0242C143.934 25.0242 142.374 26.923 142.374 30.2254C142.374 33.5425 143.933 35.4413 146.329 35.4413C148.739 35.4413 150.284 33.5414 150.284 30.2254Z" fill="black"></path><path d="M156.06 22.7695H158.979V25.3069H159.05C159.547 23.5629 160.878 22.5293 162.636 22.5293C163.076 22.5293 163.459 22.5999 163.685 22.6431V25.4913C163.444 25.3923 162.905 25.3217 162.31 25.3217C160.341 25.3217 159.121 26.6399 159.121 28.7515V37.6808H156.06V22.7695Z" fill="black"></path><path d="M165.734 18.8294C165.734 17.8516 166.528 17.0718 167.507 17.0718C168.483 17.0718 169.278 17.8516 169.278 18.8294C169.278 19.7936 168.485 20.587 167.507 20.587C166.528 20.587 165.734 19.7936 165.734 18.8294ZM165.973 22.7692H169.034V37.6806H165.973V22.7692Z" fill="black"></path><path d="M177.944 22.5005C181.416 22.5005 183.669 24.4277 183.769 27.178H180.893C180.722 25.7311 179.659 24.825 177.944 24.825C176.286 24.825 175.179 25.6332 175.179 26.824C175.179 27.7597 175.86 28.3972 177.477 28.766L179.9 29.3181C182.948 30.0273 184.11 31.2169 184.11 33.3718C184.11 36.0936 181.572 37.9639 178.058 37.9639C174.33 37.9639 172.091 36.1357 171.808 33.3012H174.84C175.124 34.8596 176.187 35.6257 178.058 35.6257C179.9 35.6257 181.034 34.8596 181.034 33.6416C181.034 32.6774 180.482 32.1105 178.852 31.7417L176.427 31.1748C173.593 30.5236 172.189 29.1621 172.189 26.9936C172.189 24.3287 174.513 22.5005 177.944 22.5005Z" fill="black"></path><path d="M199.553 33.3014C199.127 36.0232 196.547 37.9641 193.131 37.9641C188.751 37.9641 186.101 35.0021 186.101 30.2961C186.101 25.6186 188.794 22.4995 193.002 22.4995C197.142 22.4995 199.721 25.4194 199.721 29.9409V30.9894H189.189V31.1738C189.189 33.7681 190.748 35.4825 193.201 35.4825C194.943 35.4825 196.233 34.6048 196.644 33.3002L199.553 33.3014ZM189.205 28.8504H196.661C196.591 26.5691 195.145 24.9675 193.004 24.9675C190.863 24.9675 189.361 26.5965 189.205 28.8504Z" fill="black"></path><path d="M201.713 30.2253C201.713 25.5193 204.208 22.5289 207.95 22.5289C210.091 22.5289 211.791 23.6057 212.627 25.2507H212.685V17.2275H215.76V37.6804H212.784V35.143H212.727C211.848 36.8437 210.146 37.9354 207.978 37.9354C204.208 37.9354 201.713 34.9301 201.713 30.2253ZM204.846 30.2253C204.846 33.3717 206.362 35.3422 208.786 35.3422C211.139 35.3422 212.712 33.3432 212.712 30.2253C212.712 27.1358 211.139 25.1084 208.786 25.1084C206.362 25.1084 204.846 27.0925 204.846 30.2253Z" fill="black"></path><path d="M84.49 71.8311V54.1137H78.2256V51.3794H93.9155V54.1137H87.6648V71.8311H84.49Z" fill="black"></path><path d="M93.9487 56.9209H96.8686V59.4583H96.9392C97.4355 57.7154 98.7663 56.6807 100.524 56.6807C100.963 56.6807 101.347 56.7512 101.573 56.7945V59.6438C101.332 59.5448 100.794 59.4742 100.198 59.4742C98.2289 59.4742 97.0086 60.7924 97.0086 62.9052V71.8345H93.9487V56.9209Z" fill="black"></path><path d="M102.858 67.5942C102.858 64.9862 104.856 63.3846 108.4 63.1854L112.482 62.9452V61.7966C112.482 60.138 111.363 59.1465 109.492 59.1465C107.719 59.1465 106.615 59.9968 106.344 61.3287H103.453C103.622 58.6365 105.919 56.6523 109.604 56.6523C113.219 56.6523 115.528 58.5659 115.528 61.5564V71.8323H112.595V69.3803H112.524C111.659 71.0389 109.775 72.0884 107.818 72.0884C104.899 72.0873 102.858 70.2728 102.858 67.5942ZM112.482 66.2464V65.0705L108.811 65.297C106.983 65.4245 105.947 66.2327 105.947 67.5077C105.947 68.8123 107.024 69.6626 108.669 69.6626C110.81 69.6626 112.482 68.1884 112.482 66.2464Z" fill="black"></path><path d="M118.641 52.9801C118.641 52.0034 119.434 51.2236 120.413 51.2236C121.39 51.2236 122.184 52.0034 122.184 52.9801C122.184 53.9454 121.391 54.7389 120.413 54.7389C119.434 54.7389 118.641 53.9454 118.641 52.9801ZM118.881 56.9211H121.942V71.8324H118.881V56.9211Z" fill="black"></path><path d="M125.365 56.921H128.285V59.4151H128.355C129.162 57.7144 130.75 56.666 133.046 56.666C136.335 56.666 138.22 58.7629 138.22 62.1791V71.8312H135.144V62.7744C135.144 60.5341 134.095 59.3013 131.969 59.3013C129.815 59.3013 128.426 60.8324 128.426 63.1421V71.8312H125.365V56.921Z" fill="black"></path><path d="M141.318 52.9801C141.318 52.0034 142.111 51.2236 143.089 51.2236C144.067 51.2236 144.862 52.0034 144.862 52.9801C144.862 53.9454 144.068 54.7389 143.089 54.7389C142.111 54.7389 141.318 53.9454 141.318 52.9801ZM141.559 56.9211H144.62V71.8324H141.559V56.9211Z" fill="black"></path><path d="M148.042 56.921H150.963V59.4151H151.034C151.842 57.7144 153.429 56.666 155.726 56.666C159.015 56.666 160.899 58.7629 160.899 62.1791V71.8312H157.824V62.7744C157.824 60.5341 156.774 59.3013 154.649 59.3013C152.494 59.3013 151.105 60.8324 151.105 63.1421V71.8312H148.043V56.921H148.042Z" fill="black"></path><path d="M164.011 72.9944H167.085C167.526 74.2421 168.886 75.0628 170.629 75.0628C173.024 75.0628 174.443 73.7025 174.443 71.6614V69.2094H174.385C173.549 70.8259 171.791 71.8891 169.665 71.8891C165.923 71.8891 163.471 68.9692 163.471 64.3202C163.471 59.629 165.91 56.6807 169.736 56.6807C171.847 56.6807 173.578 57.7439 174.485 59.473H174.542V56.922H177.517V71.5635C177.517 75.1209 174.768 77.4454 170.516 77.4454C167.001 77.4443 164.393 75.574 164.011 72.9944ZM174.456 64.3338C174.456 61.2728 172.883 59.2602 170.488 59.2602C168.136 59.2602 166.605 61.2295 166.605 64.3338C166.605 67.4518 168.136 69.3517 170.488 69.3517C172.883 69.3517 174.456 67.4097 174.456 64.3338Z" fill="black"></path><path d="M186.777 61.5973C186.777 55.1212 190.433 51.0391 196.144 51.0391C200.78 51.0391 204.28 53.8872 204.82 58.1538H201.672C201.105 55.5322 198.923 53.8167 196.144 53.8167C192.431 53.8167 190.021 56.864 190.021 61.5973C190.021 66.3739 192.403 69.3939 196.159 69.3939C199.008 69.3939 201.035 67.9345 201.673 65.4677H204.833C204.054 69.6922 200.851 72.1726 196.144 72.1726C190.405 72.1715 186.777 68.119 186.777 61.5973Z" fill="black"></path><path d="M220.549 67.4519C220.123 70.1737 217.543 72.1158 214.127 72.1158C209.747 72.1158 207.097 69.1526 207.097 64.4478C207.097 59.7714 209.789 56.6523 213.999 56.6523C218.138 56.6523 220.717 59.5711 220.717 64.0926V65.1422H210.186V65.3266C210.186 67.9198 211.745 69.6353 214.197 69.6353C215.939 69.6353 217.229 68.7565 217.64 67.4519H220.549ZM210.201 63.0021H217.657C217.587 60.7197 216.14 59.118 214 59.118C211.86 59.118 210.357 60.7482 210.201 63.0021Z" fill="black"></path><path d="M223.521 56.921H226.441V59.4151H226.511C227.32 57.7144 228.907 56.666 231.204 56.666C234.492 56.666 236.376 58.7629 236.376 62.1791V71.8312H233.302V62.7744C233.302 60.5341 232.252 59.3013 230.127 59.3013C227.972 59.3013 226.583 60.8324 226.583 63.1421V71.8312H223.522L223.521 56.921Z" fill="black"></path><path d="M243.729 53.3911V56.9212H246.564V59.3447H243.729V67.5659C243.729 68.8557 244.296 69.4374 245.544 69.4374C245.856 69.4374 246.352 69.4101 246.551 69.3668V71.7904C246.211 71.8746 245.531 71.9315 244.85 71.9315C241.831 71.9315 240.654 70.7829 240.654 67.9063V59.3447H238.486V56.9212H240.654V53.3911H243.729Z" fill="black"></path><path d="M249.507 56.9209H252.427V59.4583H252.498C252.995 57.7154 254.326 56.6807 256.084 56.6807C256.524 56.6807 256.907 56.7512 257.133 56.7945V59.6438C256.892 59.5448 256.352 59.4742 255.758 59.4742C253.789 59.4742 252.568 60.7924 252.568 62.9052V71.8345H249.507V56.9209Z" fill="black"></path><path d="M271.237 67.4519C270.811 70.1737 268.232 72.1158 264.816 72.1158C260.435 72.1158 257.785 69.1526 257.785 64.4478C257.785 59.7714 260.479 56.6523 264.687 56.6523C268.826 56.6523 271.406 59.5711 271.406 64.0926V65.1422H260.874V65.3266C260.874 67.9198 262.433 69.6353 264.885 69.6353C266.628 69.6353 267.918 68.7565 268.329 67.4519H271.237ZM260.889 63.0021H268.346C268.275 60.7197 266.829 59.118 264.688 59.118C262.548 59.118 261.047 60.7482 260.889 63.0021Z" fill="black"></path></g><defs><clipPath id="clip0_398_3"><rect width="272.546" height="100" fill="white"></rect></clipPath></defs></svg> 